:FULLY-SPECIFIED
:FORCE-ALL-JOINTS-BE-3DOF
:DEGREES
883
root 3.85538 16.5378 30.5136 -10.9667 23.4617 359.463
lfemur -15.5885 19.7532 -19.1114
ltibia 40.3891 0 0
lfoot -12.9821 -0.36307 0
ltoes -1.30498 0 0
rfemur -80.8739 -24.2983 36.805
rtibia 100.388 0 0
rfoot 18.7931 26.1155 0
rtoes -9.14406 0 0
lowerback 15.1683 -3.94959 -6.71113
upperback 5.03307 -6.22718 -2.42226
thorax -2.66995 -3.08434 2.25286
lowerneck -7.69818 -3.20477 1.74857
upperneck 4.57436 -4.78503 4.91914
head 2.90193 -2.16413 1.05519
lclavicle 3.5599e-14 -1.53138e-14 0
lhumerus -32.9749 -40.3309 88.0628
lradius 60.741 0 0
lwrist 19.8444 0 0
lhand 25.6146 11.7365 0
lfingers 7.12502 0 0
lthumb 49.7231 33.0899 0
rclavicle 3.5599e-14 -1.53138e-14 0
rhumerus -49.2213 -29.6725 -46.6914
rradius 71.8202 0 0
rwrist -23.3029 0 0
rhand -47.1382 -53.8111 0
rfingers 7.12502 0 0
rthumb -19.8392 -859.54 0
884
root 3.83056 16.557 30.5819 -10.3493 24.4087 358.856
lfemur -16.5471 21.3867 -18.6241
ltibia 40.7057 0 0
lfoot -12.9879 0.952789 0
ltoes -1.24257 0 0
rfemur -79.3907 -25.6448 35.7279
rtibia 103.687 0 0
rfoot 19.7753 25.3985 0
rtoes -5.94775 0 0
lowerback 14.4091 -4.19515 -6.42963
upperback 4.70934 -6.46409 -2.1766
thorax -2.59122 -3.20213 2.3419
lowerneck -7.79114 -3.39131 1.60463
upperneck 4.92864 -5.04613 4.97732
head 3.05178 -2.28361 1.08349
lclavicle 1.02264e-14 -2.05558e-14 0
lhumerus -33.4557 -41.2653 89.4743
lradius 60.2732 0 0
lwrist 18.3966 0 0
lhand 26.5714 11.8165 0
lfingers 7.12502 0 0
lthumb 50.5981 32.7051 0
rclavicle 1.02264e-14 -2.05558e-14 0
rhumerus -49.2394 -29.587 -47.9846
rradius 74.1272 0 0
rwrist -23.6823 0 0
rhand -49.2758 -61.4528 0
rfingers 7.12502 0 0
rthumb -21.8933 -942.604 0
885
root 3.80407 16.5687 30.6695 -9.57769 25.3839 358.391
lfemur -17.6457 23.0577 -18.3135
ltibia 41.0923 0 0
lfoot -13.1407 1.7204 0
ltoes -1.11867 0 0
rfemur -76.6751 -26.9284 33.7158
rtibia 106.616 0 0
rfoot 20.2929 24.0061 0
rtoes -3.70094 0 0
lowerback 13.5131 -4.41943 -6.2638
upperback 4.32647 -6.68327 -1.95983
thorax -2.48764 -3.31114 2.44704
lowerneck -7.84255 -3.64141 1.40903
upperneck 5.18316 -5.38128 5.04702
head 3.1648 -2.44375 1.12128
lclavicle -1.33186e-14 -2.22639e-14 0
lhumerus -34.4615 -42.1759 91.2542
lradius 60.1121 0 0
lwrist 17.0098 0 0
lhand 27.2604 11.8633 0
lfingers 7.12502 0 0
lthumb 51.228 32.4166 0
rclavicle -1.33186e-14 -2.22639e-14 0
rhumerus -49.1469 -28.7732 -50.1037
rradius 77.1232 0 0
rwrist -23.7741 0 0
rhand -50.1716 -66.2227 0
rfingers 7.12502 0 0
rthumb -22.7538 -985.099 0
886
root 3.82344 16.5865 30.7132 -9.16713 26.5016 358.134
lfemur -18.8602 24.5391 -18.622
ltibia 41.9833 0 0
lfoot -13.112 1.91286 0
ltoes -0.516158 0 0
rfemur -74.3545 -27.961 32.0949
rtibia 109.08 0 0
rfoot 20.724 22.8049 0
rtoes -2.58609 0 0
lowerback 13.0553 -4.5994 -6.37155
upperback 4.10794 -6.89564 -1.76536
thorax -2.43674 -3.41606 2.68893
lowerneck -7.84605 -3.93936 1.19625
upperneck 5.29252 -5.76967 5.12578
head 3.22049 -2.63502 1.16397
lclavicle -2.59712e-14 -1.9236e-14 0
lhumerus -35.2774 -42.7219 92.4783
lradius 60.4011 0 0
lwrist 16.0394 0 0
lhand 27.1989 11.6689 0
lfingers 7.12502 0 0
lthumb 51.1817 32.3211 0
rclavicle -2.59712e-14 -1.9236e-14 0
rhumerus -49.7 -28.0337 -53.0391
rradius 80.3672 0 0
rwrist -23.6384 0 0
rhand -49.9894 -66.6664 0
rfingers 7.12502 0 0
rthumb -22.5802 -970.618 0
887
root 3.87754 16.6182 30.7452 -8.83054 28.1789 357.832
lfemur -20.6251 26.5573 -19.3547
ltibia 43.5214 0 0
lfoot -12.9207 2.03988 0
ltoes 0.607825 0 0
rfemur -71.6362 -29.3324 30.294
rtibia 112.483 0 0
rfoot 21.4364 21.389 0
rtoes -1.31464 0 0
lowerback 12.6875 -4.83961 -6.64177
upperback 3.90455 -7.2023 -1.48789
thorax -2.4019 -3.56716 3.1087
lowerneck -7.83813 -4.37392 0.897581
upperneck 5.401 -6.33386 5.23956
head 3.28054 -2.91428 1.22474
lclavicle -3.95124e-14 -1.31802e-14 0
lhumerus -36.1746 -43.3093 93.8074
lradius 60.9707 0 0
lwrist 14.8503 0 0
lhand 26.7765 11.2584 0
lfingers 7.12502 0 0
lthumb 50.8152 32.2534 0
rclavicle -3.95124e-14 -1.31802e-14 0
rhumerus -50.8928 -27.2487 -57.4498
rradius 84.9468 0 0
rwrist -23.405 0 0
rhand -49.517 -65.8839 0
rfingers 7.12502 0 0
rthumb -22.1294 -933.19 0
888
root 3.91338 16.6389 30.7934 -8.37372 29.5917 357.63
lfemur -22.1904 28.3274 -19.9707
ltibia 44.7737 0 0
lfoot -12.8902 1.90357 0
ltoes 1.50428 0 0
rfemur -68.4513 -30.5004 28.0782
rtibia 115.216 0 0
rfoot 21.7574 19.7157 0
rtoes -0.634212 0 0
lowerback 12.2009 -5.03822 -6.89322
upperback 3.66166 -7.45224 -1.26752
thorax -2.34562 -3.69043 3.44822
lowerneck -7.81348 -4.7745 0.613961
upperneck 5.45604 -6.85014 5.34205
head 3.31853 -3.1715 1.28159
lclavicle -5.16224e-14 -6.73006e-15 0
lhumerus -37.3145 -43.8632 95.283
lradius 61.5656 0 0
lwrist 13.8034 0 0
lhand 26.3899 10.9381 0
lfingers 7.12502 0 0
lthumb 50.4765 32.2237 0
rclavicle -5.16224e-14 -6.73006e-15 0
rhumerus -51.706 -26.0933 -61.5689
rradius 89.2307 0 0
rwrist -23.0652 0 0
rhand -48.5191 -64.1636 0
rfingers 7.12502 0 0
rthumb -21.1726 -885.329 0
889
root 3.87793 16.6237 30.8861 -7.60243 29.9159 357.669
lfemur -22.8062 29.0646 -19.9289
ltibia 44.8072 0 0
lfoot -13.3435 1.30602 0
ltoes 1.42421 0 0
rfemur -64.7306 -30.9227 25.2125
rtibia 115.672 0 0
rfoot 21.0139 17.7426 0
rtoes -1.29244 0 0
lowerback 11.3866 -5.09333 -6.94467
upperback 3.32461 -7.49447 -1.24434
thorax -2.23039 -3.71184 3.44935
lowerneck -7.76683 -4.9705 0.446336
upperneck 5.40509 -7.09479 5.38694
head 3.30802 -3.29665 1.31253
lclavicle -5.99813e-14 -2.519e-15 0
lhumerus -38.859 -44.3085 96.9466
lradius 61.9304 0 0
lwrist 13.2596 0 0
lhand 26.4358 11.0141 0
lfingers 7.12502 0 0
lthumb 50.5134 32.2425 0
rclavicle -5.99813e-14 -2.519e-15 0
rhumerus -51.1202 -24.2421 -63.6292
rradius 91.5874 0 0
rwrist -22.6098 0 0
rhand -46.7605 -61.7939 0
rfingers 7.12502 0 0
rthumb -19.4814 -839.546 0
890
root 3.71818 16.5479 31.0514 -6.32248 28.3277 358.093
lfemur -21.7226 27.984 -18.6884
ltibia 42.6887 0 0
lfoot -14.604 0.0493379 0
ltoes -0.381373 0 0
rfemur -60.4049 -30.057 21.4621
rtibia 112.241 0 0
rfoot 18.5331 15.4272 0
rtoes -4.03696 0 0
lowerback 10.0357 -4.9031 -6.61491
upperback 2.83873 -7.178 -1.55844
thorax -2.0187 -3.55739 2.85392
lowerneck -7.69289 -4.79134 0.495652
upperneck 5.19557 -6.84408 5.32792
head 3.2226 -3.17971 1.29558
lclavicle -6.22693e-14 -3.18055e-15 0
lhumerus -40.9697 -44.5703 98.84
lradius 61.8099 0 0
lwrist 13.5798 0 0
lhand 27.3106 11.7927 0
lfingers 7.12502 0 0
lthumb 51.2736 32.3201 0
rclavicle -6.22693e-14 -3.18055e-15 0
rhumerus -48.1161 -21.3701 -61.8639
rradius 90.3854 0 0
rwrist -22.0301 0 0
rhand -44.006 -59.0633 0
rfingers 7.12502 0 0
rthumb -16.827 -808.354 0
891
root 3.69237 16.5356 31.0739 -6.15253 28.0198 358.166
lfemur -21.4828 27.7353 -18.4701
ltibia 42.3082 0 0
lfoot -14.7939 -0.128622 0
ltoes -0.697057 0 0
rfemur -59.9183 -29.8699 21.012
rtibia 111.595 0 0
rfoot 18.1495 15.1642 0
rtoes -4.47403 0 0
lowerback 9.8563 -4.86526 -6.55168
upperback 2.77747 -7.11864 -1.61641
thorax -1.98979 -3.52837 2.74717
lowerneck -7.68325 -4.74433 0.516701
upperneck 5.1624 -6.78052 5.31392
head 3.20826 -3.14921 1.29028
lclavicle -6.20542e-14 -3.65015e-15 0
lhumerus -41.228 -44.5829 99.0502
lradius 61.7596 0 0
lwrist 13.6778 0 0
lhand 27.4651 11.9258 0
lfingers 7.12502 0 0
lthumb 51.4081 32.3311 0
rclavicle -6.20542e-14 -3.65015e-15 0
rhumerus -47.6256 -20.9941 -61.3917
rradius 89.9932 0 0
rwrist -21.9638 0 0
rhand -43.6491 -58.7654 0
rfingers 7.12502 0 0
rthumb -16.4828 -806.401 0
